<?xml version="1.0" standalone="no"?>
<!DOCTYPE svg PUBLIC "-//W3C//DTD SVG 20010904//EN"
 "http://www.w3.org/TR/2001/REC-SVG-20010904/DTD/svg10.dtd">
<svg version="1.0" xmlns="http://www.w3.org/2000/svg"
 width="800.000000pt" height="800.000000pt" viewBox="0 0 800.000000 800.000000"
 preserveAspectRatio="xMidYMid meet">
<metadata>
Created by potrace 1.11, written by Peter Selinger 2001-2013
</metadata>
<g transform="translate(0.000000,800.000000) scale(0.100000,-0.100000)"
fill="#000000" stroke="none">
<path d="M0 4000 l0 -4000 4000 0 4000 0 0 4000 0 4000 -4000 0 -4000 0 0
-4000z m5102 3156 c-44 -41 -49 -38 118 -61 144 -19 487 -82 507 -93 7 -4 -85
-13 -205 -20 l-219 -12 -79 45 c-66 37 -190 95 -279 130 l-20 8 20 5 c85 19
144 31 167 31 l28 1 -38 -34z m-447 -17 c93 -15 221 -57 325 -105 119 -56 387
-234 370 -246 -3 -2 -70 -22 -150 -45 -468 -133 -956 -372 -1229 -602 -79 -66
-292 -261 -286 -261 2 0 93 33 202 74 347 129 603 207 891 271 148 32 403 77
408 72 3 -2 12 -37 20 -78 20 -91 23 -274 5 -354 -63 -290 -271 -524 -556
-626 -71 -25 -21 -25 79 1 220 56 413 229 503 450 64 160 70 348 14 520 -16
52 -29 95 -28 96 1 1 51 8 110 15 92 11 110 11 117 -1 16 -27 50 -180 62 -281
21 -191 -17 -392 -108 -569 -125 -242 -324 -411 -593 -505 -82 -29 -53 -31 58
-5 327 79 584 333 683 675 20 70 23 101 22 245 0 150 -3 173 -27 253 -15 49
-38 114 -51 145 l-24 57 41 6 c23 4 85 10 138 14 l97 7 31 -93 c64 -195 121
-466 164 -774 19 -141 22 -203 22 -525 0 -320 -3 -385 -22 -526 -97 -706 -325
-1336 -630 -1743 -163 -216 -325 -362 -498 -447 -142 -69 -239 -92 -440 -104
-295 -18 -465 -47 -675 -117 -128 -42 -338 -142 -451 -214 -275 -176 -526
-435 -721 -744 -70 -111 -211 -387 -223 -437 -9 -34 -18 -35 -38 -5 -9 12 -30
38 -48 57 -125 138 -251 407 -275 588 -6 44 -2 56 46 147 114 221 309 478 491
649 239 225 475 383 874 584 295 150 457 262 644 445 269 266 432 552 502 887
28 136 30 356 5 474 -41 188 -114 331 -229 452 -157 166 -348 250 -591 261
l-119 6 5 -56 5 -56 -31 17 c-98 56 -242 231 -286 350 -44 116 -36 256 19 377
18 38 33 95 41 154 24 183 87 395 162 546 229 459 688 703 1173 624z m1492
-401 c-26 -17 -44 -34 -40 -38 4 -4 75 -22 157 -39 167 -36 542 -137 566 -152
10 -7 -4 -9 -45 -5 -33 4 -193 9 -355 12 -646 14 -1285 -53 -1842 -194 -65
-16 -115 -25 -111 -19 8 13 225 116 356 168 317 128 671 220 1022 268 187 25
206 27 280 29 l60 2 -48 -32z m-2282 -1738 c183 -58 332 -180 413 -338 79
-151 113 -346 93 -526 -51 -458 -343 -887 -806 -1188 -49 -32 -189 -109 -310
-170 -327 -165 -492 -269 -715 -447 -117 -94 -312 -288 -403 -401 -216 -268
-380 -581 -467 -890 -18 -63 -34 -116 -35 -118 -6 -7 -105 240 -138 343 -86
267 -120 500 -120 810 0 242 14 384 63 617 220 1043 969 2004 1770 2272 161
54 241 65 425 62 132 -3 172 -7 230 -26z m2235 -966 c130 -469 99 -930 -90
-1330 -81 -172 -168 -285 -305 -397 -179 -146 -516 -308 -980 -472 -338 -120
-590 -256 -903 -489 -133 -99 -133 -99 -77 -21 163 232 437 506 645 646 28 19
57 28 108 32 169 16 363 86 510 183 99 67 276 233 370 349 286 354 509 864
637 1462 19 89 35 165 35 170 1 22 22 -35 50 -133z"/>
<path d="M4563 5952 l-242 -106 25 -23 c38 -35 68 -110 67 -168 -1 -115 -74
-201 -185 -218 -40 -6 -52 7 -17 18 35 11 101 77 120 120 33 71 19 171 -33
238 -13 17 -16 17 -66 -5 l-52 -23 29 -18 c81 -47 78 -179 -4 -233 -57 -37
-154 -13 -189 46 -21 36 -20 43 4 35 31 -10 60 12 60 46 0 34 -32 53 -62 37
-11 -5 -18 -5 -18 1 0 13 -169 -62 -170 -75 0 -19 84 -127 121 -155 221 -168
444 -87 661 241 64 96 208 352 196 349 -1 0 -112 -49 -245 -107z"/>
<path d="M3344 5778 c-26 -57 -29 -73 -29 -168 0 -99 2 -109 33 -172 23 -48
52 -84 99 -128 36 -33 68 -59 70 -56 2 2 -1 23 -6 47 -28 122 -2 240 61 279
l33 20 -46 0 c-60 0 -86 -21 -109 -89 l-18 -54 -16 24 c-44 69 -66 202 -48
299 6 30 9 56 8 58 -2 1 -16 -26 -32 -60z"/>
</g>
</svg>
