<svg xmlns="http://www.w3.org/2000/svg" xmlns:xlink="http://www.w3.org/1999/xlink" viewBox="0 0 643.99 681.79"><defs><style>.cls-1,.cls-2,.cls-3,.cls-4,.cls-8{stroke:#303952;stroke-miterlimit:10;}.cls-1,.cls-2,.cls-3,.cls-4{stroke-width:15px;}.cls-1{fill:url(#Безымянный_градиент_18);}.cls-2{fill:url(#Безымянный_градиент_18-2);}.cls-3{fill:url(#Безымянный_градиент_22);}.cls-4{fill:url(#Безымянный_градиент_18-3);}.cls-5{fill:#303952;}.cls-6{fill:url(#Безымянный_градиент_18-4);}.cls-7{fill:url(#Безымянный_градиент_18-5);}.cls-8{stroke-width:14px;fill:url(#Безымянный_градиент_18-6);}.cls-9{fill:#f95928;}.cls-10{fill:url(#Безымянный_градиент_18-7);}</style><linearGradient id="Безымянный_градиент_18" x1="335.96" y1="677.23" x2="371.96" y2="-350.77" gradientTransform="translate(0 158.11)" gradientUnits="userSpaceOnUse"><stop offset="0" stop-color="#d40000"/><stop offset="1" stop-color="#ff8138"/></linearGradient><linearGradient id="Безымянный_градиент_18-2" x1="247.43" y1="678.69" x2="283.43" y2="-349.31" xlink:href="#Безымянный_градиент_18"/><linearGradient id="Безымянный_градиент_22" x1="144.12" y1="673.95" x2="180.12" y2="-354.05" gradientTransform="translate(0 158.11)" gradientUnits="userSpaceOnUse"><stop offset="0" stop-color="#d40000"/><stop offset="0.01" stop-color="#d50201"/><stop offset="0.43" stop-color="#e73818"/><stop offset="1" stop-color="#ff8138"/></linearGradient><linearGradient id="Безымянный_градиент_18-3" x1="313.88" y1="827.89" x2="349.88" y2="-200.11" gradientTransform="translate(-4.5 35.17) rotate(-5.42)" xlink:href="#Безымянный_градиент_18"/><linearGradient id="Безымянный_градиент_18-4" x1="291.01" y1="679.73" x2="327.01" y2="-348.27" xlink:href="#Безымянный_градиент_18"/><linearGradient id="Безымянный_градиент_18-5" x1="196.73" y1="674.29" x2="232.73" y2="-353.71" xlink:href="#Безымянный_градиент_18"/><linearGradient id="Безымянный_градиент_18-6" x1="406.09" y1="825.76" x2="442.09" y2="-202.24" gradientTransform="matrix(1, 0, 0, 1, 0, 0)" xlink:href="#Безымянный_градиент_18"/><linearGradient id="Безымянный_градиент_18-7" x1="256.37" y1="680.73" x2="292.37" y2="-347.27" xlink:href="#Безымянный_градиент_18"/></defs><g id="Layer_2" data-name="Layer 2"><g id="Крыло_2" data-name="Крыло 2"><path id="Крыло_2-2" data-name="Крыло 2" class="cls-1" d="M460.93,283.61s52.5,94.6-2.1,186.6c-22.2,37.4-85,60.3-126.2,74.4-41.7,14.3-85.9,47-121.1,79.3,0,0,25.7-70.6,107-119.9s104.9-170.1,104.9-170.1Z"/></g><g id="Тело"><path id="Тело-2" data-name="Тело" class="cls-2" d="M106.54,667.91s41.74-152.6,197.56-155.3c22.83-.4,45.17-7.9,63.11-22.4,30.47-24.5,69.18-74.7,89-176.5A417.43,417.43,0,0,0,458.74,169c-9.8-62.3-31.07-138.1-75-95.6-69.87,67.7-163.95,47-163.95,47l-31.75,266.5-121.22,153S38.92,605.41,106.54,667.91Z"/></g><g id="Крылья"><path id="Крыло_1" data-name="Крыло 1" class="cls-3" d="M44.83,647.91s1.3-125,156-197.5,135.5-251.3,6.4-227.2S-60.77,475.11,44.83,647.91Z"/></g><g id="Ушко_2" data-name="Ушко 2"><path id="Ушко_2-2" data-name="Ушко 2" class="cls-4" d="M191.52,106s66.7-79.77,208.3-95.9l-14.5,13.09s66.76,9,105.76,26C491.08,49.2,335.41,31.07,191.52,106Z"/></g><g id="Голова"><path id="Голова_2" data-name="Голова 2" class="cls-5" d="M202.48,139.91s-2.2-93.7,81.2-118,155.3,59,155.3,59Z"/><path id="Голова_1" data-name="Голова 1" class="cls-6" d="M200.23,162s-2.2-104.9,81.2-132.1,150.1,65.8,150.1,65.8Z"/></g><g id="Клюв"><path id="Клюв_1" data-name="Клюв 1" class="cls-7" d="M226.73,224.46S209.57,216,198.4,194.11a45.53,45.53,0,0,1-4-28.82C196.81,152.25,205,135,231,131l14.91,44.29C245.93,175.35,218.25,204.64,226.73,224.46Z"/><path id="Клюв_2" data-name="Клюв 2" class="cls-5" d="M209.32,146.73s-27.34,35.41,12.8,62c0,0-10.26-29.71,8.36-34.32,0,0-16.51-6.62-17.42,13.42C213.16,187.78,200.23,172.68,209.32,146.73Z"/></g><g id="Ушко_1" data-name="Ушко 1"><path id="Ушко_1-2" data-name="Ушко 1" class="cls-8" d="M265.83,129.21S346.28,56.1,501.3,53.41l-17,11.66S555.64,80.32,596.13,101C596.13,101,429.38,68.21,265.83,129.21Z"/></g><g id="Глаз"><path id="Гл.яблоко" class="cls-5" d="M249.63,170.81s13.9,29.7,42.1,23.2,49.1-57.6,54.2-64.9Z"/><path id="Радужка" class="cls-9" d="M289.53,148.19a21.63,21.63,0,0,1,11.8,20.6c-.4,15.2-16.4,20.6-16.4,20.6s20.1,1.9,21.8-20.6C306.83,168.89,306.33,149.69,289.53,148.19Z"/><circle id="Зрачек" class="cls-10" cx="279.83" cy="168.81" r="12.9"/><circle id="Блик" class="cls-5" cx="270.63" cy="168.21" r="4.8"/></g><g id="Линии_под_глазом" data-name="Линии под глазом"><g id="Линия_2" data-name="Линия 2"><path class="cls-5" d="M332.63,238a106.44,106.44,0,0,0,33.4-13.2l2.5-1.6,2.5-1.6c1.6-1.1,3.2-2.3,4.7-3.5a97.35,97.35,0,0,0,28.4-36.7,94.79,94.79,0,0,0,8.2-45.6c-.1-2-.3-3.9-.5-5.9s-.5-3.9-.8-5.9a98.19,98.19,0,0,0-2.6-11.7,129.53,129.53,0,0,0-8.4-22.7,70.55,70.55,0,0,1,6.8,10.3,88.3,88.3,0,0,1,5.3,11.2,99.7,99.7,0,0,1,6.4,24.1,89.8,89.8,0,0,1-7.2,49.5,91.34,91.34,0,0,1-32,38.4,90,90,0,0,1-22.5,10.9,105.22,105.22,0,0,1-12,3A70.89,70.89,0,0,1,332.63,238Z"/></g><g id="Линия_1" data-name="Линия 1"><path class="cls-5" d="M320.73,210.91a88.43,88.43,0,0,0,18.3-6.5,85.65,85.65,0,0,0,16.1-10.1,79.33,79.33,0,0,0,22.6-29.4,76.76,76.76,0,0,0,6.7-36.4c-.1-1.6-.2-3.1-.4-4.7s-.4-3.1-.6-4.7c-.5-3.2-1.1-6.3-1.9-9.4-1.6-6.2-1.16-9.13-3.86-15.13,4.3,5.1,5,7.73,7.56,13.83a80.49,80.49,0,0,1,5.4,19.5,71.7,71.7,0,0,1-5.7,40.3,74.07,74.07,0,0,1-26.1,31.2,74.89,74.89,0,0,1-18.3,8.7A60.83,60.83,0,0,1,320.73,210.91Z"/></g></g></g></svg>